<svg width="457" height="381" viewBox="0 0 457 381" fill="none" xmlns="http://www.w3.org/2000/svg">
<path d="M196.2 1.53334C178.067 4.73335 161.267 10.3333 143.4 19C80.0667 49.9333 39.2667 111.533 35.4 181.933L34.6 196.733L26.0667 200.333C21.4 202.333 17.8 204.2 17.9333 204.333C18.2 204.467 23.1333 203.933 29 203.133L39.6667 201.667L40.4667 184.333C41.8 155.933 47.1333 135.267 59.5333 109.667C74.8667 78.2 96.8667 53.5333 127.267 33.8C168.733 6.86668 221.8 -2.33333 270.467 9.00002C333.667 23.8 385 70.0667 406.2 131.4C412.333 149 415.133 164.2 416.2 185L417 201.667L427.667 203.133C433.533 203.933 438.467 204.467 438.733 204.333C438.867 204.2 435.267 202.467 430.6 200.467L422.067 196.867L421.267 182.6C418.467 133.267 399.533 90.8667 365 56.2C338.2 29.2667 305.8 11.4 267.933 2.86668C254.867 -0.0666504 210.2 -0.866653 196.2 1.53334Z" fill="#5F64F2"/>
<path d="M196.333 14.3333C160.2 20.8666 126.867 38.3333 101 64.3333C68.2 97 50.4667 136.867 47.5334 184.6C46.8667 196.467 47 200.067 48.4667 201.8C50.2 203.933 50.3334 203.667 51 200.333C51.5334 196.867 52.6 196.2 59.6667 194.467L67.6667 192.467L62.7334 191.133C57 189.667 56.0667 187.667 61 187.667C64.0667 187.667 64.3334 187.267 64.3334 181.133C64.3334 166.333 72.0667 138.067 80.3334 122.6L84.0667 115.667L80.3334 113.667L76.6 111.8L73 119.4C64.7334 136.733 59.1334 157.933 56.8667 180.067C56.2 187.4 58.7334 187.933 56.8667 187.667C53.9334 187 51.1334 170.733 54.3334 156.333C58.0667 139.133 68.8667 110.467 72.3334 108.333C72.7334 108.067 76.4667 108.6 80.4667 109.667C84.4667 110.733 87.9333 111.667 88.3334 111.667C88.6 111.667 86.2 109 83 105.667C77.6667 100.2 77.2667 99.4 78.8667 96.6C85.6667 83.8 109.4 59 126.067 47.1333L135.133 40.6L141.667 47L148.2 53.4L146.333 47C145.267 43.5333 144.333 39.5333 144.333 38.2C144.333 31.2666 189.667 16.6 214.333 15.4L223.667 15L225.667 21.9333C226.733 25.8 227.933 29 228.467 29C228.867 29 229.933 25.6666 230.867 21.5333L232.6 14.2L242.067 15C262.2 16.8666 284.333 22.7333 302.467 31C313.4 35.9333 313.533 36.3333 310.333 47L308.467 53.4L315 47L321.4 40.7333L330.6 47.1333C343.267 56.2 360.467 73 369.933 85.5333C374.333 91.4 378.333 97 378.6 98.0666C379 99 376.733 102.467 373.533 105.8C370.333 109 368.067 111.667 368.333 111.667C368.733 111.667 372.333 110.733 376.333 109.667C380.333 108.6 383.8 107.667 383.933 107.667C385.267 107.667 394.067 127.933 397.533 138.6C404.2 159.667 407.8 187 404.067 188.333C403.133 188.6 399.4 189.667 395.667 190.6L389 192.467L397 194.467C404.867 196.467 405 196.467 405.8 201.667C407.133 211.533 409 202.733 408.733 187.533C407.4 105.133 348.2 33.5333 266.333 15.5333C248.2 11.5333 214.733 10.8666 196.333 14.3333Z" fill="#5F64F2"/>
<path d="M203.933 22.4667C187.267 24.8667 156.2 34.8667 149 40.2C146.6 41.9333 146.6 42.0667 149.533 46.7333L152.467 51.5333L159.933 48.2C171.8 42.8667 190.333 38.4667 207.4 36.7333L223 35.1333V28.0667V21L217.4 21.1333C214.2 21.2667 208.2 21.8 203.933 22.4667Z" fill="#5F64F2"/>
<path d="M233.667 28.8666C233.667 36.9999 233.667 36.9999 237.533 36.9999C248.733 36.9999 272.733 43.9333 289.4 51.9333C295.533 54.8666 300.6 57.1333 300.867 56.8666C301.8 55.9333 309.667 42.1999 309.667 41.6666C309.667 40.4666 293.933 33.2666 284.067 29.9333C271.133 25.5333 256.6 22.5999 243.667 21.3999L233.667 20.5999V28.8666Z" fill="#5F64F2"/>
<path d="M313.8 54.6L309.267 62.8667L315.133 67.5333C325.667 75.9333 343.667 94.8667 349.667 103.667C352.867 108.467 355.533 112.6 355.8 112.733C355.933 113 360.467 110.733 365.667 107.667L375.133 102.067L372.867 98.6C367.667 90.4667 357.8 78.4667 350.067 70.7333C342.467 63 321.267 46.3333 319.267 46.3333C318.733 46.3333 316.333 50.0667 313.8 54.6Z" fill="#5F64F2"/>
<path d="M124.2 56.2C110.867 66.2 97.8 79.6666 88.3334 93.1333L81.6667 102.733L85.2667 105L88.8667 107.133L94.8667 99.1333C103.533 87.2666 119.933 71.6666 131.933 63.6666C137.667 59.9333 142.467 56.6 142.733 56.3333C143.667 55.4 138.867 47.6666 137.267 47.6666C136.467 47.6666 130.6 51.5333 124.2 56.2Z" fill="#5F64F2"/>
<path d="M168.6 83.6667C163.933 84.3334 158.6 85.8001 156.867 87.0001C151.8 90.2001 145 100.333 136.6 116.6C132.467 124.867 128.6 131.667 128.067 131.667C127.4 131.667 127 129.267 127 126.333V121L120.067 121.133C110.2 121.133 103.8 123.533 103.267 127.267C102.867 129.533 103.533 130.333 105.533 130.333C107 130.333 108.467 130.867 108.867 131.533C109.267 132.067 108.067 132.333 106.333 131.933C102.467 131.267 101.8 133.667 105.4 135.533C106.6 136.2 111.4 137.133 116.067 137.667C120.6 138.2 124.6 139.133 125 139.8C125.4 140.333 127.667 138.733 130.067 136.2L134.467 131.4H225C274.867 131.4 312.333 130.867 308.333 130.333C304.333 129.8 280.333 129.133 255 129C229.667 128.867 202.867 128.333 195.4 127.8L181.8 127L189.4 121.267C200.067 113.267 224.067 101.667 238.333 97.6667C253.667 93.2667 274.2 91.0001 287.133 92.2001L297.267 93.1334L302.2 102.467C308.333 113.8 309.933 114.6 304.2 103.533C302.067 99.0001 300.333 95.1334 300.733 94.8667C302.467 93.0001 321.533 123.933 321.667 129C321.8 131.8 330.6 141.4 331.533 139.933C331.933 139.133 336.067 138.2 340.6 137.667C349.267 136.6 353.667 135.133 353.667 133C353.667 132.333 352.333 131.533 350.733 131.267L347.667 130.733L350.733 130.467C353.133 130.333 353.8 129.667 353.4 127.267C352.867 123.533 346.467 121.133 336.733 121.133L329.667 121V125.533C329.667 128.067 329.133 130.467 328.6 130.867C327.933 131.267 324.067 124.867 319.933 116.6C310.467 97.8001 302.2 87.0001 295.4 84.8667C289.267 82.8667 181.667 81.9334 168.6 83.6667Z" fill="#5F64F2"/>
<path d="M370.333 116.467C365.933 119.133 362.067 121.533 361.8 121.8C361.533 122.067 363.267 127 365.667 133C371.267 147 374.733 160.2 376.6 175.267L378.067 187.667H389.267H400.333V181.933C400.333 172.2 396.467 151.667 392.2 139.133C387.533 125.533 381.667 112.733 379.667 112.067C379 111.8 374.733 113.8 370.333 116.467Z" fill="#5F64F2"/>
<path d="M145.667 139.267C149.4 146.067 161.533 161 163.267 161C163.933 161 162.867 158.467 161.133 155.267C159.267 152.067 155.933 146.2 153.667 142.2C149.933 135.4 148.067 133.8 151.133 140.067C152.467 143 152.467 143 150.067 140.333C148.733 138.867 146.467 136.733 145 135.667C142.867 133.933 142.867 134.333 145.667 139.267Z" fill="#5F64F2"/>
<path d="M313.533 138.467C309.4 142.867 308.733 142.733 311.133 137.933C312.067 136.333 312.2 135.4 311.667 135.933C311.133 136.467 307.533 142.733 303.533 149.933L296.467 163L303.533 155.533C310.067 148.467 319.933 134.333 318.2 134.333C317.8 134.333 315.667 136.2 313.533 138.467Z" fill="#5F64F2"/>
<path d="M116.333 161.133C116.333 162.067 116.733 162.333 117.267 161.933C118.867 160.333 121.667 163.933 121.667 167.8C121.667 172.067 125.267 175.133 136.467 180.2C141.533 182.6 144.067 183.133 145.8 182.2C148.6 180.733 155.533 180.867 160.333 182.333C162.867 183.133 161.8 183.4 156.333 183.4C152.333 183.4 147.133 183.8 144.733 184.333C141.4 185.133 138.467 184.333 131.133 181C121.267 176.467 118.333 174.067 117.267 169.667C116.733 167.533 116.6 167.8 116.467 170.6C116.333 175.133 120.2 178.2 133.267 183.667C143 187.8 143.667 187.8 147.133 185.8C150.2 183.933 152.2 183.8 159.933 185C176.333 187.4 175.933 187.667 170.733 178.333C168.2 173.533 165.267 169.933 163.667 169.667C162.2 169.267 151.933 167.267 140.867 165.133C129.933 162.867 119.8 160.733 118.6 160.2C117.133 159.667 116.333 160.067 116.333 161.133Z" fill="#5F64F2"/>
<path d="M318.333 165.133C305.133 167.933 294.2 170.2 294.067 170.333C293.133 170.467 285.533 185.267 286.2 185.933C286.6 186.333 291.8 186.067 297.933 185.267C306.867 184.2 309.533 184.2 312.6 185.8C315.933 187.533 317.133 187.4 326.6 183.667C341.533 177.8 343.267 176.2 344.067 167.133C344.333 163 344.2 159.8 343.533 159.8C342.867 159.933 331.533 162.333 318.333 165.133ZM341.8 171.933C339.933 176.867 324.6 184.333 317.133 183.933C314.067 183.8 308.067 183.533 303.667 183.533L295.667 183.4L301.533 181.933C305.4 181 309 181 312.333 181.8C317.8 183.4 320.067 182.733 330.6 176.467C336.467 173.133 337.8 171.667 338.467 167.667C339 165.133 340.067 162.6 340.867 162.067C342.867 160.733 343.533 167.533 341.8 171.933Z" fill="#5F64F2"/>
<path d="M180.333 183.933L188.333 197.933L199.267 198.733C213.533 199.933 249 199.933 261.933 198.867L271.933 197.933L279.533 184.867C283.667 177.667 287 171.533 287 171.4C287 171.133 278.733 171.533 268.733 172.067C249.8 173.267 180.6 172.333 175.267 170.867C172.6 170.067 173.267 171.667 180.333 183.933ZM270.2 177.133C264.867 178.333 198.2 178.333 191.8 177.267C188.867 176.733 206.2 176.333 230.333 176.333C254.467 176.333 272.467 176.733 270.2 177.133ZM250.733 183.267C239.8 183.533 222.2 183.533 211.4 183.267C200.467 183.133 209.4 182.867 231 182.867C252.6 182.867 261.533 183.133 250.733 183.267ZM264.6 189.267C263.4 189.8 248.2 190.2 231 190.2C213.8 190.2 198.6 189.8 197.4 189.267C196.067 188.733 211.267 188.333 231 188.333C250.733 188.333 265.933 188.733 264.6 189.267ZM259.533 194.6C256.733 195.133 243.8 195.533 231 195.533C218.2 195.533 205.267 195.133 202.467 194.6C199.667 194.067 212.467 193.667 231 193.667C249.533 193.667 262.333 194.067 259.533 194.6Z" fill="#5F64F2"/>
<path d="M25.8 209.267C15.2667 210.467 14.0667 210.867 6.73333 216.6C-4.06667 225.133 -2.73333 226.333 18.2 226.333H34.4667L38.0667 233.8L41.8 241.4L38.0667 248.467L34.3333 255.667H18.2C-2.46667 255.667 -4.2 256.867 6.33333 265C13.1333 270.333 14.4667 270.733 28.2 272.6L42.8667 274.733L51.4 267.267L59.9333 259.667H228.067H396.2L403.267 267.133L410.333 274.6L421.667 273.667C439.933 272.2 442.467 271.4 450.333 265.133C460.733 256.867 459.133 255.667 438.467 255.667H422.333L418.467 248.467L414.6 241.267L418.467 233.8L422.333 226.333H438.467C459 226.333 460.467 225.133 450.333 217.267C443.667 211.933 442.333 211.533 428.467 209.533L413.8 207.4L405.533 214.867L397.267 222.333H228.333H59.5333L52.3333 215C44.3333 206.867 45.4 207.133 25.8 209.267ZM367 226.333C368.333 227.133 320.733 227.667 231.267 227.667C139.8 227.667 93.8 227.267 94.3333 226.333C95.4 224.467 364.2 224.467 367 226.333ZM313.933 257.267C279.133 257.8 213.267 257.8 167.267 257.267C84.4667 256.067 85.1333 256.067 230.333 256.067C359.667 256.067 369.533 256.2 313.933 257.267Z" fill="#5F64F2"/>
<path d="M108.6 244.067C105.533 247.267 104.333 250.867 107.267 247.933C108.2 247 110.2 246.333 111.933 246.333C115.267 246.333 115.4 246.2 114.2 243.133C113.133 240.2 111.933 240.467 108.6 244.067Z" fill="#5F64F2"/>
<path d="M183.533 240.333C182.067 244.067 184.067 246.333 188.733 246.333C193.8 246.333 197.133 243.533 195.8 240.333C194.733 237.533 184.6 237.533 183.533 240.333Z" fill="#5F64F2"/>
<path d="M201 270.333C197.4 273.933 194.733 277.267 195.133 277.667C195.533 277.933 198.733 275.267 202.333 271.667C205.933 268.067 208.6 264.733 208.2 264.333C207.8 264.067 204.6 266.733 201 270.333Z" fill="#5F64F2"/>
<path d="M248.333 264.467C248.333 265.133 251.4 268.733 255 272.333C258.733 275.933 261.667 278.333 261.667 277.533C261.667 276.867 258.733 273.267 255 269.667C251.4 266.067 248.333 263.667 248.333 264.467Z" fill="#5F64F2"/>
<path d="M63 266.867C63 268.2 65.8 268.867 73.5333 269.267C81.8 269.8 85.2667 270.6 90.0667 273.533C103.933 281.533 107.667 297.8 99.2667 314.067L95 322.467L99.8 328.467C102.467 331.8 107.133 336.333 109.933 338.6L115.133 342.733L122.733 338.867C129.133 335.667 131.933 335 140.467 335C149.133 335 151.267 335.533 155.933 338.6C163.267 343.4 168.467 353.933 169 365.133C169.267 369.667 169.933 373.8 170.6 374.467C172.067 375.8 190.867 381 194.467 381C196.467 381 198.6 379 201.533 374.6C206.867 366.333 210.333 363.133 217.667 359.8C225.267 356.333 231.4 356.333 239 359.8C246.333 363.133 249.8 366.333 255.133 374.6C259.933 382.067 261.267 382.333 276.333 377.933L286.333 375L287.4 365.667C288.733 352.6 293.667 343.133 301.533 338.067C307.133 334.467 308.467 334.2 317 334.6C324.067 335 328.2 336.067 333.8 338.867L341.4 342.733L346.6 338.6C349.4 336.2 353.933 331.667 356.733 328.467L361.533 322.6L357.267 314.2C349.133 298.333 352.467 282.2 365.933 273.933C370.867 270.867 374.467 269.8 382.467 269.133C388.867 268.6 393 267.667 393.4 266.6C393.8 265.4 388.067 265 368.067 265H342.2L334.067 277.267C313.933 308.2 282.867 328.733 247.8 334.333C233.533 336.733 206.467 335.4 193.667 331.8C162.867 323 132.867 299.533 117.4 272.067L113.4 265H88.2C67.8 265 63 265.4 63 266.867Z" fill="#5F64F2"/>
<path d="M203.667 273.267L197 280.333L204.067 273.667C210.467 267.533 211.667 266.333 210.6 266.333C210.467 266.333 207.267 269.533 203.667 273.267Z" fill="#5F64F2"/>
<path d="M251.667 273C255.267 276.6 258.467 279.667 258.867 279.667C259.267 279.667 256.6 276.6 253 273C249.4 269.267 246.2 266.333 245.8 266.333C245.4 266.333 248.067 269.267 251.667 273Z" fill="#5F64F2"/>
<path d="M205 275.8C201.267 279.667 199.133 282.333 200.067 281.8C201 281.267 201.667 281.533 201.667 282.6C201.667 284.333 210.867 294.333 212.467 294.333C212.867 294.333 212.867 292.333 212.6 289.8C212.2 286.333 212.733 284.867 215.133 283.267C217.8 281.4 217.933 280.867 216.2 278.733C214.467 276.467 214.6 276.467 217 278.467C218.467 279.667 221 281 222.6 281.267C224.867 281.933 224.2 280.867 219.933 276.467C216.867 273.533 213.533 271.267 212.467 271.533C211.267 271.933 210.867 271.533 211.533 270.6C213.4 267.533 211.533 269 205 275.8ZM211 272.067C211 272.333 208.733 274.6 206.067 277.133L201 281.667L205.533 276.6C209.933 272.067 211 271 211 272.067ZM210.467 279.933C208.867 282.2 208.733 283.267 210.067 284.867C211.533 286.733 211.4 286.733 209.4 285.133C207.133 283.4 207.267 282.333 210.067 278.6C212.2 275.8 212.6 276.867 210.467 279.933ZM213.8 282.733C212.067 284.467 210.333 283.133 211.667 281.133C212.067 280.333 213.133 280.067 213.933 280.467C214.733 281 214.733 281.8 213.8 282.733Z" fill="#5F64F2"/>
<path d="M245.667 271C247.4 273 245.8 273.8 243.667 271.933C242.867 271.4 239.8 273.533 236.733 276.467C232.467 280.867 231.8 281.933 234.067 281.267C235.667 281 238.2 279.667 239.667 278.467C242.067 276.467 242.2 276.467 240.467 278.733C238.2 281.533 239.533 283.4 242.2 281.133C243.667 279.933 244.333 279.933 245 281.133C245.533 281.933 245.267 283.133 244.333 283.667C243.4 284.333 243.267 285 244.067 285.533C244.733 285.933 246.067 285.4 247 284.467C248.2 282.867 247.933 281.933 245.8 279.8C244.2 278.2 243.533 277 244.2 277C245 277 246.467 278.333 247.533 279.933C249.4 282.6 249.4 283.133 247.133 285.667C244.6 288.467 242.6 294.333 244.2 294.333C244.733 294.333 247.4 292.067 250.067 289.267C253.8 285.4 254.867 283.533 254.067 281.533C253.267 279.267 253.4 279.133 255.8 280.867C257.133 281.933 255.4 279.8 251.667 275.933C245.533 269.4 241.933 266.6 245.667 271ZM251 276.333C252.733 278.2 253.8 279.667 253.4 279.667C253.133 279.667 251.4 278.2 249.667 276.333C247.933 274.467 246.867 273 247.267 273C247.533 273 249.267 274.467 251 276.333Z" fill="#5F64F2"/>
<path d="M215.933 285.533C215.133 287.667 223.933 295.267 225.4 293.8C226.6 292.6 223.8 288.333 221.8 288.333C220.867 288.333 219.4 287.267 218.333 285.933C217 283.933 216.467 283.933 215.933 285.533Z" fill="#5F64F2"/>
<path d="M239 284.733C239 285.667 238.467 286.2 237.8 285.667C237.133 285.267 234.067 287.933 230.867 291.667C227.8 295.267 224.867 298.067 224.333 297.667C223.8 297.4 221.667 299 219.533 301.4L215.667 305.667L220.333 301.667L225 297.667L221.4 301.8C218.333 305 217.933 306.2 219.4 307.667C220.2 308.6 218.867 307.8 216.2 305.8C211.933 302.733 211.133 302.467 209.667 304.333C207.533 306.867 208.6 307.933 213.133 308.467C215.133 308.733 217.4 309.533 218.2 310.467C219.133 311.533 219.267 311.8 218.2 311.267C216.6 310.333 216.6 314.2 218.2 316.733C219 318.067 219.667 317.933 221 316.067C222.2 314.6 222.333 313.133 221.533 312.2C219.667 309.933 222.067 305 227.8 299.667C230.467 297.133 232.2 295.933 231.667 297C231 298.2 231 298.6 231.8 297.933C232.467 297.267 233 296.2 233 295.533C233 295 235 292.733 237.4 290.733C240.6 287.933 241.4 286.467 240.333 285C239.4 283.533 239 283.533 239 284.733ZM238.733 288.6C237.933 289.533 237 290.067 236.6 289.667C236.2 289.267 234.6 290.067 233.133 291.267C230.733 293.267 230.733 293.133 233.4 290.2C236.467 286.6 241.667 285.133 238.733 288.6Z" fill="#5F64F2"/>
<path d="M226.2 302.6L222.333 307L226.733 303.133C230.733 299.4 231.667 298.333 230.6 298.333C230.333 298.333 228.467 300.333 226.2 302.6Z" fill="#5F64F2"/>
<path d="M231.667 301C230.333 302.467 229.667 303.8 230.067 303.8C230.6 303.933 231.667 304.067 232.333 304.2C233.133 304.2 234.333 305.133 234.867 306.2C235.533 307.133 236.733 307.533 237.667 307C238.733 306.333 238.333 305 236.067 302.467L233 299L236.6 302.2C238.6 303.933 240.067 305.933 239.933 306.733C239.8 307.4 240.467 308.333 241.533 308.733C242.733 309.133 243 308.733 242.333 307.667C241.533 306.467 241.933 306.467 244.067 307.533C247.4 309.4 249.4 307.133 247 304.2C245.667 302.733 244.867 302.6 243.4 303.8C241.933 305.133 240.733 304.6 237.8 301.8C234.067 298.333 234.067 298.333 231.667 301Z" fill="#5F64F2"/>
<path d="M204.333 309.667C203.133 311.133 203.267 312.2 205.133 314.733C209.4 320.333 213.533 322.733 215.667 321C218.333 318.733 216.867 316.867 213 317.533C209.267 318.2 207.533 316.333 208.067 312.067C208.6 308.467 206.467 307.133 204.333 309.667Z" fill="#5F64F2"/>
<path d="M235.933 310.733C233.533 314.333 235 317.8 238.2 316.6C239.8 315.933 240.067 315.133 239.267 313.4C238.6 312.067 238.333 310.2 238.6 309.267C239.533 306.6 238.2 307.4 235.933 310.733Z" fill="#5F64F2"/>
<path d="M249.267 308.6C248.733 309 248.333 311.133 248.333 313.267C248.333 316.867 247 317.667 242.067 317.133C239.533 316.867 238.867 319.267 241 321C242.467 322.2 243.4 322.2 245 320.733C248.733 317.667 253.667 312.333 253.667 311.533C253.667 310.067 250.067 307.667 249.267 308.6Z" fill="#5F64F2"/>
</svg>
